<svg width="37" height="37" fill="none" xmlns="http://www.w3.org/2000/svg"><g clip-path="url(#a)" fill="#000"><path d="M3.605 32.886h3.606v-18.27c0-.484.19-.95.528-1.292a1.79 1.79 0 0 1 1.274-.535h21.632V9.135c0-.484-.19-.95-.528-1.292a1.79 1.79 0 0 0-1.274-.535h-5.5C22.889 3.208 19.487 0 15.323 0c-4.165 0-7.566 3.208-8.02 7.308h-5.5a1.79 1.79 0 0 0-1.275.535A1.84 1.84 0 0 0 0 9.135v20.097c0 .97.38 1.899 1.056 2.584a3.58 3.58 0 0 0 2.55 1.07ZM15.323 3.654c2.175 0 3.998 1.571 4.416 3.654h-8.833c.418-2.083 2.24-3.654 4.417-3.654Z"/><path d="M34.25 16.443H12.62a1.79 1.79 0 0 0-1.275.535 1.84 1.84 0 0 0-.528 1.292v14.616c0 .97.38 1.899 1.056 2.584a3.58 3.58 0 0 0 2.55 1.07h18.026c.956 0 1.873-.385 2.55-1.07a3.679 3.679 0 0 0 1.055-2.584V18.27c0-.484-.19-.95-.528-1.292a1.79 1.79 0 0 0-1.274-.535Zm-10.815 12.79c-4.97 0-9.014-4.099-9.014-9.136h3.606c0 3.022 2.426 5.481 5.408 5.481 2.981 0 5.408-2.459 5.408-5.48h3.605c0 5.036-4.043 9.134-9.013 9.134Z"/></g><defs><clipPath id="a"><path fill="#fff" d="M0 0h36.053v36.54H0z"/></clipPath></defs></svg>